<svg width="26" height="26" viewBox="0 0 26 26" fill="none" xmlns="http://www.w3.org/2000/svg">
<path d="M20.8125 3.91113H5.1875C4.75603 3.91113 4.40625 4.26091 4.40625 4.69238V20.3174C4.40625 20.7489 4.75603 21.0986 5.1875 21.0986H20.8125C21.244 21.0986 21.5938 20.7489 21.5938 20.3174V4.69238C21.5938 4.26091 21.244 3.91113 20.8125 3.91113Z" stroke="#333333" stroke-linecap="round" stroke-linejoin="round"/>
<path d="M17.6875 2.34863V5.47363" stroke="#333333" stroke-linecap="round" stroke-linejoin="round"/>
<path d="M8.3125 2.34863V5.47363" stroke="#333333" stroke-linecap="round" stroke-linejoin="round"/>
<path d="M4.40625 8.59863H21.5938" stroke="#333333" stroke-linecap="round" stroke-linejoin="round"/>
<path d="M9.48438 12.5049H12.2188L10.6562 14.458C10.9134 14.4576 11.1667 14.5206 11.3936 14.6415C11.6206 14.7624 11.8142 14.9375 11.9572 15.1512C12.1003 15.3648 12.1884 15.6105 12.2138 15.8664C12.2392 16.1223 12.201 16.3805 12.1026 16.6181C12.0043 16.8557 11.8488 17.0653 11.65 17.2284C11.4512 17.3916 11.2152 17.5031 10.963 17.5531C10.7108 17.6032 10.4501 17.5902 10.2041 17.5153C9.95808 17.4405 9.73434 17.3061 9.55273 17.124" stroke="#333333" stroke-linecap="round" stroke-linejoin="round"/>
<path d="M14.5625 13.6768L16.125 12.5049V17.583" stroke="#333333" stroke-linecap="round" stroke-linejoin="round"/>
</svg>
