<svg width="26" height="26" viewBox="0 0 26 26" fill="none" xmlns="http://www.w3.org/2000/svg">
<path d="M20.8125 3.91113H17.6875C17.256 3.91113 16.9062 4.26091 16.9062 4.69238V7.81738C16.9062 8.24886 17.256 8.59863 17.6875 8.59863H20.8125C21.244 8.59863 21.5938 8.24886 21.5938 7.81738V4.69238C21.5938 4.26091 21.244 3.91113 20.8125 3.91113Z" stroke="#333333" stroke-linecap="round" stroke-linejoin="round"/>
<path d="M8.3125 3.91113H5.1875C4.75603 3.91113 4.40625 4.26091 4.40625 4.69238V7.81738C4.40625 8.24886 4.75603 8.59863 5.1875 8.59863H8.3125C8.74397 8.59863 9.09375 8.24886 9.09375 7.81738V4.69238C9.09375 4.26091 8.74397 3.91113 8.3125 3.91113Z" stroke="#333333" stroke-linecap="round" stroke-linejoin="round"/>
<path d="M20.8125 16.4111H17.6875C17.256 16.4111 16.9062 16.7609 16.9062 17.1924V20.3174C16.9062 20.7489 17.256 21.0986 17.6875 21.0986H20.8125C21.244 21.0986 21.5938 20.7489 21.5938 20.3174V17.1924C21.5938 16.7609 21.244 16.4111 20.8125 16.4111Z" stroke="#333333" stroke-linecap="round" stroke-linejoin="round"/>
<path d="M8.3125 16.4111H5.1875C4.75603 16.4111 4.40625 16.7609 4.40625 17.1924V20.3174C4.40625 20.7489 4.75603 21.0986 5.1875 21.0986H8.3125C8.74397 21.0986 9.09375 20.7489 9.09375 20.3174V17.1924C9.09375 16.7609 8.74397 16.4111 8.3125 16.4111Z" stroke="#333333" stroke-linecap="round" stroke-linejoin="round"/>
<path d="M6.75 16.4111V8.59863" stroke="#333333" stroke-linecap="round" stroke-linejoin="round"/>
<path d="M16.9062 18.7549H9.09375" stroke="#333333" stroke-linecap="round" stroke-linejoin="round"/>
<path d="M19.25 8.59863V16.4111" stroke="#333333" stroke-linecap="round" stroke-linejoin="round"/>
<path d="M9.09375 6.25488H16.9062" stroke="#333333" stroke-linecap="round" stroke-linejoin="round"/>
</svg>
