<svg width="26" height="25" viewBox="0 0 26 25" fill="none" xmlns="http://www.w3.org/2000/svg">
<path d="M5.96875 4.6875C9.90476 4.69009 13.6788 6.25481 16.462 9.03799C19.2452 11.8212 20.8099 15.5952 20.8125 19.5312" stroke="#333333" stroke-linecap="round" stroke-linejoin="round"/>
<path d="M5.96875 11.7188C6.9947 11.7188 8.01061 11.9208 8.95846 12.3134C9.90632 12.7061 10.7676 13.2815 11.493 14.007C12.2185 14.7324 12.7939 15.5937 13.1866 16.5415C13.5792 17.4894 13.7812 18.5053 13.7812 19.5312" stroke="#333333" stroke-linecap="round" stroke-linejoin="round"/>
<path d="M5.96875 20.7031C6.61596 20.7031 7.14062 20.1785 7.14062 19.5312C7.14062 18.884 6.61596 18.3594 5.96875 18.3594C5.32154 18.3594 4.79688 18.884 4.79688 19.5312C4.79688 20.1785 5.32154 20.7031 5.96875 20.7031Z" fill="#333333"/>
</svg>
