<svg width="34" height="62" viewBox="0 0 34 62" fill="none" xmlns="http://www.w3.org/2000/svg">
<g clip-path="url(#clip0_5368_14648)">
<path d="M18.3857 35C13.7095 35 9.31699 33.1808 6.01291 29.8728C2.70493 26.5687 0.885742 22.1763 0.885742 17.5C0.885742 12.8237 2.70493 8.43125 6.01291 5.12717C9.32088 1.82308 13.7134 0 18.3857 0C21.476 0 24.5119 0.816304 27.1707 2.35951C29.4175 3.66559 31.3844 5.49256 32.8499 7.64216C33.0948 8.00367 33.1725 8.45458 33.0559 8.87828C32.4028 11.2533 30.226 12.9132 27.7616 12.9132C26.9219 12.9132 26.1173 12.7266 25.3632 12.3651C25.1766 12.2757 25.0134 12.1474 24.8773 11.988C24.4458 11.4788 23.9522 11.0201 23.4118 10.6236C21.9464 9.55076 20.2088 8.98323 18.3857 8.98323C13.6901 8.98323 9.86897 12.8043 9.86897 17.5C9.86897 22.1957 13.6901 26.0168 18.3857 26.0168C20.2088 26.0168 21.9464 25.4492 23.4118 24.3764C23.9522 23.9799 24.4497 23.5173 24.8812 23.0081C25.4137 22.3823 26.3544 22.3045 26.9803 22.8371C27.6061 23.3696 27.6838 24.3103 27.1513 24.9361C26.5682 25.6242 25.8996 26.2461 25.1688 26.7787C23.1903 28.2286 20.8424 28.9943 18.3857 28.9943C12.0458 28.9943 6.88752 23.8361 6.88752 17.4961C6.88752 11.1562 12.0458 6.00566 18.3857 6.00566C20.8463 6.00566 23.1942 6.77143 25.1727 8.22135C25.8024 8.68392 26.3855 9.20869 26.9103 9.78787C27.1824 9.88505 27.4661 9.93558 27.7616 9.93558C28.6673 9.93558 29.4875 9.4458 29.9306 8.69169C28.7722 7.17959 27.3146 5.89294 25.6742 4.93669C23.4701 3.65782 20.9513 2.98145 18.3896 2.98145C14.5102 2.98145 10.8641 4.49356 8.12364 7.23401C5.3793 9.97834 3.87108 13.6245 3.87108 17.5C3.87108 21.3755 5.38319 25.0255 8.12364 27.766C10.868 30.5103 14.5141 32.0185 18.3896 32.0185C20.9552 32.0185 23.474 31.3422 25.6781 30.0594C27.5439 28.9749 29.1765 27.455 30.3932 25.6708C30.8558 24.9906 31.7848 24.8156 32.465 25.2821C33.1453 25.7447 33.3202 26.6737 32.8538 27.354C31.3844 29.5036 29.4214 31.3305 27.1746 32.6366C24.5158 34.1798 21.4799 35 18.3896 35H18.3857Z" fill="url(#paint0_linear_5368_14648)"/>
<path d="M22.3896 17.5001C22.3896 19.7119 20.5977 21.5039 18.3859 21.5039C16.1741 21.5039 14.3821 19.7119 14.3821 17.5001C14.3821 15.2883 16.1741 13.4963 18.3859 13.4963C20.5977 13.4963 22.3896 15.2883 22.3896 17.5001V17.5001Z" fill="url(#paint1_linear_5368_14648)"/>
</g>
<rect x="0.885742" y="45" width="32.2285" height="17" rx="3" fill="url(#paint2_linear_5368_14648)"/>
<path d="M9.24512 53.6748H7.44336L7.43359 52.918H9.06934C9.33952 52.918 9.57552 52.8724 9.77734 52.7812C9.97917 52.6901 10.1354 52.5599 10.2461 52.3906C10.36 52.2181 10.417 52.013 10.417 51.7754C10.417 51.515 10.3665 51.3034 10.2656 51.1406C10.168 50.9746 10.0166 50.8542 9.81152 50.7793C9.6097 50.7012 9.35254 50.6621 9.04004 50.6621H7.65332V57H6.71094V49.8906H9.04004C9.40462 49.8906 9.73014 49.9281 10.0166 50.0029C10.3031 50.0745 10.5456 50.1885 10.7441 50.3447C10.946 50.4977 11.099 50.693 11.2031 50.9307C11.3073 51.1683 11.3594 51.4531 11.3594 51.7852C11.3594 52.0781 11.2845 52.3434 11.1348 52.5811C10.985 52.8154 10.7767 53.0075 10.5098 53.1572C10.2461 53.307 9.93685 53.403 9.58203 53.4453L9.24512 53.6748ZM9.20117 57H7.07227L7.60449 56.2334H9.20117C9.50065 56.2334 9.75456 56.1813 9.96289 56.0771C10.1745 55.973 10.3356 55.8265 10.4463 55.6377C10.557 55.4456 10.6123 55.2194 10.6123 54.959C10.6123 54.6953 10.5651 54.4674 10.4707 54.2754C10.3763 54.0833 10.2282 53.9352 10.0264 53.8311C9.82454 53.7269 9.56413 53.6748 9.24512 53.6748H7.90234L7.91211 52.918H9.74805L9.94824 53.1914C10.29 53.2207 10.5798 53.3184 10.8174 53.4844C11.055 53.6471 11.2357 53.8555 11.3594 54.1094C11.4863 54.3633 11.5498 54.6432 11.5498 54.9492C11.5498 55.3919 11.4521 55.7663 11.2568 56.0723C11.0648 56.375 10.793 56.6061 10.4414 56.7656C10.0898 56.9219 9.67643 57 9.20117 57ZM14.9971 57.0977C14.6292 57.0977 14.2956 57.0358 13.9961 56.9121C13.6999 56.7852 13.4443 56.6077 13.2295 56.3799C13.0179 56.152 12.8551 55.8818 12.7412 55.5693C12.6273 55.2568 12.5703 54.915 12.5703 54.5439V54.3389C12.5703 53.9092 12.6338 53.5267 12.7607 53.1914C12.8877 52.8529 13.0602 52.5664 13.2783 52.332C13.4964 52.0977 13.7438 51.9202 14.0205 51.7998C14.2972 51.6794 14.5837 51.6191 14.8799 51.6191C15.2575 51.6191 15.583 51.6842 15.8564 51.8145C16.1331 51.9447 16.3594 52.127 16.5352 52.3613C16.7109 52.5924 16.8411 52.8659 16.9258 53.1816C17.0104 53.4941 17.0527 53.8359 17.0527 54.207V54.6123H13.1074V53.875H16.1494V53.8066C16.1364 53.5723 16.0876 53.3444 16.0029 53.123C15.9215 52.9017 15.7913 52.7194 15.6123 52.5762C15.4333 52.4329 15.1891 52.3613 14.8799 52.3613C14.6748 52.3613 14.486 52.4053 14.3135 52.4932C14.141 52.5778 13.9928 52.7048 13.8691 52.874C13.7454 53.0433 13.6494 53.25 13.5811 53.4941C13.5127 53.7383 13.4785 54.0199 13.4785 54.3389V54.5439C13.4785 54.7946 13.5127 55.0306 13.5811 55.252C13.6527 55.4701 13.7552 55.6621 13.8887 55.8281C14.0254 55.9941 14.1898 56.1243 14.3818 56.2188C14.5771 56.3132 14.7985 56.3604 15.0459 56.3604C15.3649 56.3604 15.6351 56.2952 15.8564 56.165C16.0778 56.0348 16.2715 55.8607 16.4375 55.6426L16.9844 56.0771C16.8704 56.2497 16.7256 56.4141 16.5498 56.5703C16.374 56.7266 16.1576 56.8535 15.9004 56.9512C15.6465 57.0488 15.3454 57.0977 14.9971 57.0977ZM20.3193 51.7168V52.4102H17.4629V51.7168H20.3193ZM18.4297 50.4326H19.333V55.6914C19.333 55.8704 19.3607 56.0055 19.416 56.0967C19.4714 56.1878 19.543 56.248 19.6309 56.2773C19.7188 56.3066 19.8132 56.3213 19.9141 56.3213C19.9889 56.3213 20.0671 56.3148 20.1484 56.3018C20.2331 56.2855 20.2965 56.2725 20.3389 56.2627L20.3438 57C20.2721 57.0228 20.1777 57.0439 20.0605 57.0635C19.9466 57.0863 19.8083 57.0977 19.6455 57.0977C19.4242 57.0977 19.2207 57.0537 19.0352 56.9658C18.8496 56.8779 18.7015 56.7314 18.5908 56.5264C18.4834 56.318 18.4297 56.0381 18.4297 55.6865V50.4326ZM24.4941 56.0967V53.377C24.4941 53.1686 24.4518 52.988 24.3672 52.835C24.2858 52.6787 24.1621 52.5583 23.9961 52.4736C23.8301 52.389 23.625 52.3467 23.3809 52.3467C23.153 52.3467 22.9528 52.3857 22.7803 52.4639C22.611 52.542 22.4775 52.6445 22.3799 52.7715C22.2855 52.8984 22.2383 53.0352 22.2383 53.1816H21.335C21.335 52.9928 21.3838 52.8057 21.4814 52.6201C21.5791 52.4346 21.7191 52.2669 21.9014 52.1172C22.0869 51.9642 22.3083 51.8438 22.5654 51.7559C22.8258 51.6647 23.1156 51.6191 23.4346 51.6191C23.8187 51.6191 24.1572 51.6842 24.4502 51.8145C24.7464 51.9447 24.9775 52.1416 25.1436 52.4053C25.3128 52.6657 25.3975 52.9928 25.3975 53.3867V55.8477C25.3975 56.0234 25.4121 56.2106 25.4414 56.4092C25.474 56.6077 25.5212 56.7786 25.583 56.9219V57H24.6406C24.5951 56.8958 24.5592 56.7575 24.5332 56.585C24.5072 56.4092 24.4941 56.2464 24.4941 56.0967ZM24.6504 53.7969L24.6602 54.4316H23.7471C23.4899 54.4316 23.2604 54.4528 23.0586 54.4951C22.8568 54.5342 22.6875 54.5944 22.5508 54.6758C22.4141 54.7572 22.3099 54.8597 22.2383 54.9834C22.1667 55.1038 22.1309 55.2454 22.1309 55.4082C22.1309 55.5742 22.1683 55.7256 22.2432 55.8623C22.318 55.999 22.4303 56.1081 22.5801 56.1895C22.7331 56.2676 22.9202 56.3066 23.1416 56.3066C23.4183 56.3066 23.6624 56.248 23.874 56.1309C24.0856 56.0137 24.2533 55.8704 24.377 55.7012C24.5039 55.5319 24.5723 55.3675 24.582 55.208L24.9678 55.6426C24.945 55.7793 24.8831 55.9307 24.7822 56.0967C24.6813 56.2627 24.5462 56.4222 24.377 56.5752C24.2109 56.7249 24.0124 56.8503 23.7812 56.9512C23.5534 57.0488 23.2962 57.0977 23.0098 57.0977C22.6517 57.0977 22.3376 57.0277 22.0674 56.8877C21.8005 56.7477 21.5921 56.5605 21.4424 56.3262C21.2959 56.0885 21.2227 55.8232 21.2227 55.5303C21.2227 55.2471 21.278 54.998 21.3887 54.7832C21.4993 54.5651 21.6589 54.3844 21.8672 54.2412C22.0755 54.0947 22.3262 53.984 22.6191 53.9092C22.9121 53.8343 23.2393 53.7969 23.6006 53.7969H24.6504Z" fill="white"/>
<defs>
<linearGradient id="paint0_linear_5368_14648" x1="0.885742" y1="17.5" x2="33.1142" y2="17.5" gradientUnits="userSpaceOnUse">
<stop stop-color="#99CC99"/>
<stop offset="1" stop-color="#39C0C4"/>
</linearGradient>
<linearGradient id="paint1_linear_5368_14648" x1="14.3821" y1="34.9418" x2="22.3896" y2="34.9418" gradientUnits="userSpaceOnUse">
<stop stop-color="#99CC99"/>
<stop offset="1" stop-color="#39C0C4"/>
</linearGradient>
<linearGradient id="paint2_linear_5368_14648" x1="0.885742" y1="54.5625" x2="33.1142" y2="54.5625" gradientUnits="userSpaceOnUse">
<stop stop-color="#5AD7D7"/>
<stop offset="0.348958" stop-color="#6CBBEE"/>
<stop offset="0.692708" stop-color="#95B3E7"/>
<stop offset="1" stop-color="#D8B3FA"/>
</linearGradient>
<clipPath id="clip0_5368_14648">
<rect width="32.2285" height="35" fill="white" transform="translate(0.885742)"/>
</clipPath>
</defs>
</svg>
